<?xml version="1.0" encoding="UTF-8"?>
<!DOCTYPE svg PUBLIC "-//W3C//DTD SVG 1.1//EN" "http://www.w3.org/Graphics/SVG/1.1/DTD/svg11.dtd">
<svg xmlns="http://www.w3.org/2000/svg" version="1.1" width="2544px" height="1771px" style="shape-rendering:geometricPrecision; text-rendering:geometricPrecision; image-rendering:optimizeQuality; fill-rule:evenodd; clip-rule:evenodd" xmlns:xlink="http://www.w3.org/1999/xlink">
<g><path style="opacity:0.961" fill="#506b6b" d="M 1001.5,-0.5 C 1012.83,-0.5 1024.17,-0.5 1035.5,-0.5C 1128.04,4.83262 1208.37,38.6659 1276.5,101C 1322.26,143.78 1360.43,192.28 1391,246.5C 1404.33,270.827 1416.83,295.494 1428.5,320.5C 1492.06,277.026 1562.06,249.526 1638.5,238C 1781.12,221.747 1900.62,266.247 1997,371.5C 2057.36,443.173 2090.36,526.173 2096,620.5C 2101.88,836.334 2049.88,1037 1940,1222.5C 1929.35,1238.85 1919.01,1255.18 1909,1271.5C 1958.05,1228.57 2009.89,1189.4 2064.5,1154C 2101.65,1111.73 2130.99,1064.4 2152.5,1012C 2149.33,1010.17 2146.83,1007.67 2145,1004.5C 2126.37,972.942 2114.7,938.942 2110,902.5C 2105.24,853.787 2119.74,811.954 2153.5,777C 2165.24,766.458 2178.57,758.458 2193.5,753C 2195.17,752.333 2196.83,752.333 2198.5,753C 2245.04,806.703 2256.54,867.203 2233,934.5C 2219.41,967.091 2198.08,993.424 2169,1013.5C 2153.42,1053.35 2133.25,1090.51 2108.5,1125C 2132.98,1111.08 2157.65,1097.08 2182.5,1083C 2204.38,1071.56 2226.38,1060.4 2248.5,1049.5C 2251.43,1036.89 2255.26,1024.55 2260,1012.5C 2285.2,972.622 2320.7,946.456 2366.5,934C 2426.46,917.803 2484.8,922.303 2541.5,947.5C 2542.31,949.952 2541.81,952.285 2540,954.5C 2505.32,1013.82 2454.82,1052.99 2388.5,1072C 2352.77,1080.39 2316.77,1081.72 2280.5,1076C 2272.81,1074.8 2265.31,1072.96 2258,1070.5C 2146.55,1127.71 2042.38,1195.54 1945.5,1274C 1961.43,1267.58 1977.77,1261.91 1994.5,1257C 2013.89,1252.28 2033.55,1249.78 2053.5,1249.5C 2053.02,1229.48 2061.36,1214.31 2078.5,1204C 2099.68,1191.83 2122.51,1186.66 2147,1188.5C 2222.58,1188.93 2291.41,1210.43 2353.5,1253C 2298.73,1292.15 2237.73,1315.15 2170.5,1322C 2132.24,1325.36 2099.41,1313.86 2072,1287.5C 2066.21,1280.37 2061.21,1272.71 2057,1264.5C 2013.86,1269.43 1973.03,1282.27 1934.5,1303C 1903.66,1322.26 1872.33,1340.76 1840.5,1358.5C 1807.98,1395.85 1772.98,1430.68 1735.5,1463C 1771.23,1455.99 1807.23,1450.16 1843.5,1445.5C 1843.74,1424.26 1854.4,1412.6 1875.5,1410.5C 1895.12,1412.12 1905.79,1422.79 1907.5,1442.5C 1903.44,1468.04 1888.77,1477.87 1863.5,1472C 1856.46,1469.12 1850.8,1464.62 1846.5,1458.5C 1804.77,1463.68 1763.44,1471.01 1722.5,1480.5C 1741.85,1502.92 1766.02,1516.25 1795,1520.5C 1801.63,1503.23 1814.13,1496.06 1832.5,1499C 1849.64,1504.11 1857.81,1515.61 1857,1533.5C 1852.48,1554.86 1839.31,1564.03 1817.5,1561C 1804.65,1556.82 1796.65,1548.15 1793.5,1535C 1759.44,1528.64 1731.11,1512.48 1708.5,1486.5C 1680.66,1508.24 1652.33,1529.24 1623.5,1549.5C 1659.1,1599.67 1690.94,1652.34 1719,1707.5C 1720.34,1719.16 1715.18,1724.66 1703.5,1724C 1700.45,1723.39 1697.95,1721.89 1696,1719.5C 1667.91,1665.13 1636.24,1613.13 1601,1563.5C 1392.53,1695.08 1164.86,1755.08 918,1743.5C 858.109,1757.6 797.609,1766.6 736.5,1770.5C 709.5,1770.5 682.5,1770.5 655.5,1770.5C 593.603,1766.16 532.27,1756.99 471.5,1743C 443.597,1736.59 417.263,1726.26 392.5,1712C 367.371,1695.87 348.204,1674.37 335,1647.5C 333.119,1643.69 331.953,1639.69 331.5,1635.5C 381.917,1628.42 429.25,1637.58 473.5,1663C 497.436,1677.94 521.103,1693.27 544.5,1709C 572.033,1727.1 602.033,1739.1 634.5,1745C 671.68,1750.49 709.013,1751.83 746.5,1749C 795.521,1745.66 843.854,1738.33 891.5,1727C 840.191,1707.9 789.524,1687.23 739.5,1665C 632.833,1616.33 526.167,1567.67 419.5,1519C 384.005,1502.77 351.005,1482.77 320.5,1459C 298.157,1439.78 279.991,1417.28 266,1391.5C 261.826,1382.82 258.493,1373.82 256,1364.5C 253.66,1351.84 258.827,1344.34 271.5,1342C 333.329,1336.83 386.329,1355.83 430.5,1399C 437.667,1406.83 444.833,1414.67 452,1422.5C 471.62,1447.79 491.62,1472.79 512,1497.5C 558.351,1545.93 611.851,1584.43 672.5,1613C 700.155,1626.34 728.488,1637.67 757.5,1647C 730.694,1611.63 710.028,1572.79 695.5,1530.5C 644.06,1524.77 599.06,1504.94 560.5,1471C 520.34,1432.49 489.173,1387.66 467,1336.5C 450.181,1297.71 436.348,1257.88 425.5,1217C 320.742,1210.76 229.075,1173.42 150.5,1105C 93.2557,1051.02 53.0891,986.184 30,910.5C 11.9197,851.018 1.75306,790.351 -0.5,728.5C -0.5,714.5 -0.5,700.5 -0.5,686.5C 3.64359,558.243 40.8103,440.576 111,333.5C 194.019,214.186 306.519,137.352 448.5,103C 546.888,81.3634 643.055,88.53 737,124.5C 781.643,77.0005 834.643,42.0005 896,19.5C 930.442,8.24349 965.609,1.57682 1001.5,-0.5 Z M 998.5,25.5 C 1098.3,21.9428 1184.97,53.4428 1258.5,120C 1323.12,181.203 1372.12,253.203 1405.5,336C 1303.56,415.032 1226.39,513.532 1174,631.5C 1147.93,687.037 1124.6,743.704 1104,801.5C 1124.68,592.215 1065.01,409.881 925,254.5C 878.489,204.639 824.655,164.806 763.5,135C 801.676,96.5136 846.01,67.1803 896.5,47C 929.656,35.137 963.656,27.9704 998.5,25.5 Z M 542.5,116.5 C 602.709,114.757 661.043,124.257 717.5,145C 673.13,197.237 633.297,252.737 598,311.5C 535.67,413.17 486.003,520.837 449,634.5C 413.519,744.716 395.353,857.716 394.5,973.5C 394.644,1046.46 402.977,1118.46 419.5,1189.5C 328.428,1183.44 247.761,1151.61 177.5,1094C 111.408,1035.03 67.9076,962.2 47,875.5C 9.09837,724.215 21.4317,577.215 84,434.5C 150.63,291.201 258.464,193.367 407.5,141C 451.587,126.988 496.587,118.821 542.5,116.5 Z M 743.5,155.5 C 794.072,177.942 839.406,208.108 879.5,246C 987.368,351.555 1053.2,479.388 1077,629.5C 1086.73,710.021 1083.4,790.021 1067,869.5C 1058.06,913.592 1047.39,957.259 1035,1000.5C 1018.62,1054.69 1001.62,1108.69 984,1162.5C 914.716,1154.69 845.216,1152.86 775.5,1157C 741.072,1158.92 706.739,1161.92 672.5,1166C 618.846,1173.44 565.179,1180.78 511.5,1188C 489.894,1190.49 468.227,1191.49 446.5,1191C 415.325,1058.24 412.158,924.736 437,790.5C 458.411,676.601 494.411,567.601 545,463.5C 589.388,371.906 641.722,285.572 702,204.5C 715.366,187.764 729.2,171.431 743.5,155.5 Z M 1644.5,1501.5 C 1660.41,1474.67 1677.58,1448.67 1696,1423.5C 1721.33,1393.5 1746.67,1363.5 1772,1333.5C 1797.66,1298.51 1811,1259.18 1812,1215.5C 1812.95,1185.78 1812.12,1156.11 1809.5,1126.5C 1717.18,1209.17 1669.01,1312.84 1665,1437.5C 1650.34,1458.15 1636.67,1479.49 1624,1501.5C 1623.87,1470.85 1623.87,1440.18 1624,1409.5C 1627.48,1388.08 1631.48,1366.74 1636,1345.5C 1640.71,1312.11 1636.71,1279.78 1624,1248.5C 1618.88,1236.26 1613.21,1224.26 1607,1212.5C 1591.49,1186.81 1574.99,1161.81 1557.5,1137.5C 1556.73,1136.29 1555.89,1136.29 1555,1137.5C 1535.15,1176.24 1528.15,1217.24 1534,1260.5C 1540.81,1304.27 1554.81,1345.6 1576,1384.5C 1586,1402.5 1596,1420.5 1606,1438.5C 1607.1,1455.16 1607.43,1471.82 1607,1488.5C 1606.52,1499.02 1604.86,1509.36 1602,1519.5C 1537.28,1432.94 1460.45,1359.27 1371.5,1298.5C 1402.74,1260.71 1426.24,1218.38 1442,1171.5C 1487.31,1038.64 1509.81,901.971 1509.5,761.5C 1509.86,638.527 1492.36,518.194 1457,400.5C 1451.19,382.05 1444.69,363.883 1437.5,346C 1498.31,303.052 1565.64,275.719 1639.5,264C 1783.37,247.594 1900.87,295.094 1992,406.5C 2038.71,469.589 2064.71,540.589 2070,619.5C 2075.9,813.993 2032.9,996.993 1941,1168.5C 1867.54,1301.81 1768.71,1412.81 1644.5,1501.5 Z M 1414.5,362.5 C 1415.75,362.577 1416.58,363.244 1417,364.5C 1450.96,458.282 1471.62,554.948 1479,654.5C 1491.2,802.439 1478.2,948.106 1440,1091.5C 1428.7,1133.75 1414.03,1174.75 1396,1214.5C 1383.08,1239.74 1367.41,1263.08 1349,1284.5C 1264.59,1232.86 1173.76,1197.19 1076.5,1177.5C 1068.17,1109.13 1070.67,1041.13 1084,973.5C 1101.02,888.117 1126.68,805.45 1161,725.5C 1180.3,679.902 1200.96,634.902 1223,590.5C 1270.97,501.347 1334.8,425.347 1414.5,362.5 Z M 2181.5,777.5 C 2182.85,782.949 2183.68,788.616 2184,794.5C 2184.67,807.5 2184.67,820.5 2184,833.5C 2174.25,822.007 2167.08,809.007 2162.5,794.5C 2163.9,791.594 2165.9,789.094 2168.5,787C 2172.9,783.812 2177.23,780.645 2181.5,777.5 Z M 2198.5,781.5 C 2205.88,791.09 2211.88,801.59 2216.5,813C 2211.72,819.448 2206.56,825.615 2201,831.5C 2200.88,814.777 2200.05,798.11 2198.5,781.5 Z M 2149.5,807.5 C 2157.71,826.072 2169.05,842.572 2183.5,857C 2182.34,865.451 2181.17,873.951 2180,882.5C 2166.74,861.144 2154.9,838.977 2144.5,816C 2146.57,813.358 2148.23,810.525 2149.5,807.5 Z M 2221.5,832.5 C 2222.59,832.62 2223.25,833.287 2223.5,834.5C 2226.22,844.34 2227.38,854.34 2227,864.5C 2218.18,874.988 2207.85,883.655 2196,890.5C 2196.78,879.184 2197.78,867.85 2199,856.5C 2207.04,848.958 2214.54,840.958 2221.5,832.5 Z M 2135.5,835.5 C 2147.44,860.048 2160.94,883.715 2176,906.5C 2175.15,917.732 2173.15,928.732 2170,939.5C 2154.62,923.082 2141.95,904.749 2132,884.5C 2127.34,875.569 2126.34,866.236 2129,856.5C 2130.67,849.315 2132.84,842.315 2135.5,835.5 Z M 2225.5,888.5 C 2226.38,888.369 2227.04,888.702 2227.5,889.5C 2225.52,902.265 2222.02,914.599 2217,926.5C 2207.85,935.153 2197.35,941.32 2185.5,945C 2188.04,933.947 2190.21,922.78 2192,911.5C 2200.83,906 2209.67,900.5 2218.5,895C 2221.29,893.281 2223.62,891.115 2225.5,888.5 Z M 2128.5,912.5 C 2139.78,928.681 2152.28,944.014 2166,958.5C 2165.19,965.866 2163.86,973.199 2162,980.5C 2161.27,984.751 2159.94,988.751 2158,992.5C 2143.91,967.381 2134.07,940.715 2128.5,912.5 Z M 2410.5,942.5 C 2413.52,942.335 2416.52,942.502 2419.5,943C 2414.69,947.48 2410.19,952.313 2406,957.5C 2399.12,968.085 2392.62,978.918 2386.5,990C 2372.39,995.223 2358.39,1000.72 2344.5,1006.5C 2352.14,980.84 2367.47,960.674 2390.5,946C 2397.32,944.919 2403.99,943.753 2410.5,942.5 Z M 2449.5,942.5 C 2453.18,942.335 2456.85,942.501 2460.5,943C 2453.04,950.752 2447.21,959.586 2443,969.5C 2432.38,973.487 2421.71,977.487 2411,981.5C 2418.57,963.433 2431.4,950.433 2449.5,942.5 Z M 2465.5,962.5 C 2469.67,956.165 2475,950.999 2481.5,947C 2489.07,947.392 2496.41,949.059 2503.5,952C 2490.84,955.611 2478.17,959.111 2465.5,962.5 Z M 2200.5,957.5 C 2194.33,967.18 2186.83,975.847 2178,983.5C 2179.21,976.919 2180.38,970.252 2181.5,963.5C 2188.1,962.3 2194.43,960.3 2200.5,957.5 Z M 2352.5,957.5 C 2338.67,974.154 2329.34,993.154 2324.5,1014.5C 2306.15,1022.43 2287.98,1030.76 2270,1039.5C 2271.79,1026.25 2277.12,1014.59 2286,1004.5C 2304.11,983.035 2326.27,967.368 2352.5,957.5 Z M 2511.5,965.5 C 2508.68,972.005 2504.34,977.171 2498.5,981C 2489.05,981.826 2479.72,981.159 2470.5,979C 2484.02,973.994 2497.68,969.494 2511.5,965.5 Z M 2439.5,989.5 C 2448.51,991.167 2457.51,993.001 2466.5,995C 2472.8,995.942 2479.14,996.609 2485.5,997C 2478.83,1003 2472.17,1009 2465.5,1015C 2446.14,1016.11 2428.14,1011.44 2411.5,1001C 2421.04,997.39 2430.37,993.557 2439.5,989.5 Z M 2391.5,1008.5 C 2407.03,1018.93 2424.03,1026.09 2442.5,1030C 2434.12,1035.19 2425.45,1039.86 2416.5,1044C 2392.09,1044.81 2369.09,1039.48 2347.5,1028C 2362.37,1021.72 2377.04,1015.22 2391.5,1008.5 Z M 2327.5,1036.5 C 2328.87,1036.34 2330.21,1036.51 2331.5,1037C 2345.52,1045.68 2360.52,1052.18 2376.5,1056.5C 2366.38,1059.4 2356.05,1061.23 2345.5,1062C 2324.71,1063.3 2304.04,1062.3 2283.5,1059C 2283.17,1058.67 2282.83,1058.33 2282.5,1058C 2297.59,1050.79 2312.59,1043.62 2327.5,1036.5 Z M 1046.5,1050.5 C 1047.16,1052.13 1047.49,1053.97 1047.5,1056C 1044.56,1094.56 1045.23,1133.06 1049.5,1171.5C 1036.38,1169.7 1023.38,1167.37 1010.5,1164.5C 1023.11,1126.67 1035.11,1088.67 1046.5,1050.5 Z M 1710.5,1378.5 C 1730.8,1340.9 1749.8,1302.57 1767.5,1263.5C 1765.88,1261.68 1763.88,1260.35 1761.5,1259.5C 1738.11,1306.15 1712.77,1351.48 1685.5,1395.5C 1696.29,1309.27 1730.79,1234.27 1789,1170.5C 1785.59,1191.29 1779.76,1211.46 1771.5,1231C 1773.34,1233.6 1775.68,1234.44 1778.5,1233.5C 1784.88,1220.87 1790.38,1207.87 1795,1194.5C 1797.83,1242.54 1785.16,1285.87 1757,1324.5C 1742.38,1343.28 1726.88,1361.28 1710.5,1378.5 Z M 821.5,1180.5 C 872.873,1179.62 924.04,1181.95 975,1187.5C 958.295,1249.91 934.628,1309.58 904,1366.5C 884.389,1401.79 859.222,1432.62 828.5,1459C 815.232,1469.58 800.899,1478.58 785.5,1486C 783.835,1486.79 782.169,1487.12 780.5,1487C 751.973,1457.39 717.64,1437.56 677.5,1427.5C 677.884,1452.82 681.217,1477.82 687.5,1502.5C 646.02,1496.42 609.687,1479.59 578.5,1452C 541.492,1416.64 512.659,1375.48 492,1328.5C 476.056,1292.67 462.89,1255.84 452.5,1218C 478.243,1216.97 503.909,1214.97 529.5,1212C 586.08,1203.68 642.746,1196.01 699.5,1189C 740.232,1184.83 780.899,1182 821.5,1180.5 Z M 1555.5,1180.5 C 1556.38,1180.37 1557.04,1180.7 1557.5,1181.5C 1587.11,1240.62 1603.28,1303.29 1606,1369.5C 1606.67,1380.83 1606.67,1392.17 1606,1403.5C 1587.91,1371.92 1572.91,1338.92 1561,1304.5C 1547.95,1263.63 1546.12,1222.3 1555.5,1180.5 Z M 1002.5,1190.5 C 1019.99,1192.64 1037.32,1195.64 1054.5,1199.5C 1062.9,1244.63 1081.74,1284.63 1111,1319.5C 1139.23,1350.2 1174.06,1368.7 1215.5,1375C 1254.98,1377.62 1290.64,1367.28 1322.5,1344C 1332.79,1336.04 1342.79,1327.71 1352.5,1319C 1354.81,1319.64 1357.14,1320.64 1359.5,1322C 1447.6,1382.43 1522.76,1455.93 1585,1542.5C 1384.65,1668.97 1165.82,1727.47 928.5,1718C 911.886,1712.35 895.886,1705.35 880.5,1697C 867.705,1687.87 858.205,1676.03 852,1661.5C 848.228,1652.08 845.228,1642.41 843,1632.5C 839.148,1609.57 834.148,1586.9 828,1564.5C 821.154,1544.3 811.321,1525.8 798.5,1509C 836.121,1489.1 867.954,1462.26 894,1428.5C 921.794,1390.93 944.461,1350.27 962,1306.5C 976.795,1268.28 990.295,1229.62 1002.5,1190.5 Z M 1082.5,1204.5 C 1170.35,1224 1252.68,1257 1329.5,1303.5C 1305.84,1327.83 1277.18,1343 1243.5,1349C 1215,1351.63 1188.67,1345.29 1164.5,1330C 1129.92,1307.06 1105.75,1275.89 1092,1236.5C 1088.21,1226 1085.04,1215.33 1082.5,1204.5 Z M 2127.5,1205.5 C 2138.84,1205.33 2150.17,1205.5 2161.5,1206C 2141.52,1217.3 2123.85,1231.64 2108.5,1249C 2095.81,1249.75 2083.14,1249.59 2070.5,1248.5C 2070.27,1236.79 2074.94,1227.62 2084.5,1221C 2097.59,1212.14 2111.92,1206.97 2127.5,1205.5 Z M 2186.5,1207.5 C 2195.57,1208.7 2204.57,1210.37 2213.5,1212.5C 2196.15,1222.09 2180.32,1233.76 2166,1247.5C 2165,1249.5 2164,1251.5 2163,1253.5C 2150.93,1251.89 2138.76,1250.73 2126.5,1250C 2144.28,1232.62 2164.28,1218.45 2186.5,1207.5 Z M 2234.5,1217.5 C 2245.09,1219.75 2255.42,1222.92 2265.5,1227C 2254.35,1234.48 2245.69,1244.14 2239.5,1256C 2234.52,1257.33 2229.52,1258.5 2224.5,1259.5C 2224.5,1260.5 2224.5,1261.5 2224.5,1262.5C 2228.83,1262.92 2233.17,1263.42 2237.5,1264C 2241.29,1272.45 2246.62,1279.79 2253.5,1286C 2242.32,1290.01 2230.98,1293.51 2219.5,1296.5C 2204.11,1288.28 2190.61,1277.61 2179,1264.5C 2178.83,1264.17 2178.67,1263.83 2178.5,1263.5C 2185.87,1262.7 2193.2,1261.7 2200.5,1260.5C 2193.06,1257.85 2185.4,1256.01 2177.5,1255C 2194.53,1239.46 2213.53,1226.96 2234.5,1217.5 Z M 1589.5,1218.5 C 1608.87,1249.12 1619.54,1282.62 1621.5,1319C 1620.94,1328.91 1619.78,1338.74 1618,1348.5C 1614.18,1303.89 1604.68,1260.56 1589.5,1218.5 Z M 2282.5,1233.5 C 2292.87,1237.52 2302.87,1242.35 2312.5,1248C 2294.11,1249.67 2275.78,1251.34 2257.5,1253C 2264.05,1244.08 2272.38,1237.58 2282.5,1233.5 Z M 2099.5,1259.5 C 2101.83,1259.5 2104.17,1259.5 2106.5,1259.5C 2107.47,1264.45 2109.31,1269.12 2112,1273.5C 2119.42,1283.59 2127.59,1293.09 2136.5,1302C 2109.97,1298.4 2089.63,1285.23 2075.5,1262.5C 2083.54,1260.97 2091.54,1259.97 2099.5,1259.5 Z M 2120.5,1261.5 C 2123.31,1260.84 2126.31,1260.5 2129.5,1260.5C 2140.37,1260.94 2151.2,1261.61 2162,1262.5C 2164.91,1266.64 2167.57,1270.97 2170,1275.5C 2179.29,1285.13 2189.46,1293.63 2200.5,1301C 2185.94,1304.05 2171.27,1305.21 2156.5,1304.5C 2143.69,1290.71 2131.69,1276.37 2120.5,1261.5 Z M 2297.5,1263.5 C 2299.2,1263.34 2300.87,1263.51 2302.5,1264C 2291.52,1269.88 2280.36,1275.38 2269,1280.5C 2262.5,1276.67 2257.33,1271.5 2253.5,1265C 2268.34,1264.83 2283.01,1264.33 2297.5,1263.5 Z M 291.5,1362.5 C 368.505,1371.89 427.005,1409.56 467,1475.5C 472.193,1485.05 476.693,1494.88 480.5,1505C 470.532,1500.51 460.865,1495.18 451.5,1489C 408.167,1457 364.833,1425 321.5,1393C 311.667,1383.83 301.833,1374.67 292,1365.5C 291.517,1364.55 291.351,1363.55 291.5,1362.5 Z M 290.5,1379.5 C 347.135,1432.48 409.135,1478.15 476.5,1516.5C 472.037,1518.47 467.37,1518.97 462.5,1518C 433.498,1511.01 406.832,1499.01 382.5,1482C 355.398,1461.16 329.898,1438.33 306,1413.5C 297.855,1403.54 292.688,1392.21 290.5,1379.5 Z M 711.5,1461.5 C 747.271,1479.1 774.771,1505.44 794,1540.5C 811.038,1573.63 818.371,1608.63 816,1645.5C 784.951,1581.7 750.117,1520.37 711.5,1461.5 Z M 734.5,1524.5 C 734.5,1525.83 735.167,1526.5 736.5,1526.5C 758.341,1564.85 779.674,1603.51 800.5,1642.5C 775.753,1620.92 753.253,1597.25 733,1571.5C 714.79,1546.73 703.456,1519.07 699,1488.5C 698.333,1480.17 698.333,1471.83 699,1463.5C 710.845,1483.86 722.678,1504.19 734.5,1524.5 Z M 386.5,1655.5 C 440.429,1659.79 486.762,1680.96 525.5,1719C 520.815,1718.11 516.148,1716.78 511.5,1715C 476.619,1698.73 441.619,1682.73 406.5,1667C 399.643,1663.41 392.976,1659.57 386.5,1655.5 Z M 377.5,1662.5 C 424.762,1692.13 475.095,1715.29 528.5,1732C 481.707,1733.07 439.374,1720.07 401.5,1693C 396.667,1688.17 391.833,1683.33 387,1678.5C 383.055,1673.61 379.888,1668.27 377.5,1662.5 Z"/></g>
<g><path style="opacity:0.531" fill="#0c0f0f" d="M 734.5,1524.5 C 735.5,1524.83 736.167,1525.5 736.5,1526.5C 735.167,1526.5 734.5,1525.83 734.5,1524.5 Z"/></g>
</svg>
